<svg width="64" height="64" viewBox="0 0 64 64" fill="none" xmlns="http://www.w3.org/2000/svg">
<circle cx="32" cy="32" r="31" fill="white" stroke="#FD862F" stroke-width="2"/>
<path opacity="0.45" d="M32 64C23.4538 64 15.4217 60.6715 9.36867 54.6313C6.38715 51.6498 4.04819 48.1542 2.42892 44.2474C0.809638 40.3406 0 36.2281 0 32C0 23.4538 3.32851 15.4217 9.36867 9.36867C15.4217 3.32851 23.4538 0 32 0H32.09C36.3052 0 40.4048 0.82249 44.2988 2.44177C48.1928 4.06104 51.6627 6.38715 54.6313 9.38153C60.6715 15.4217 64 23.4667 64 32.0129C64 40.559 60.6715 48.5912 54.6313 54.6442C48.5783 60.6715 40.5462 64 32 64ZM2.41606 29.4297C2.13333 29.4297 1.83775 29.4554 1.56787 29.5068L1.13092 29.5968L1.11807 29.7896C1.05382 30.5221 1.02811 31.2675 1.02811 32C1.02811 36.0867 1.8249 40.0707 3.37992 43.849C4.93494 47.6273 7.20964 51.0072 10.0884 53.8988C15.9357 59.7462 23.7108 62.9719 31.9871 62.9719C40.2635 62.9719 48.0386 59.7462 53.8859 53.8988C57.343 50.4546 59.9647 46.1751 61.4683 41.5357L61.5839 41.1759L61.1855 41.2016L60.4273 41.2273C58.6153 41.3044 56.9703 42.4225 56.2378 44.0932L56.045 44.5173C55.2996 46.2008 53.6289 47.2932 51.7783 47.2932H48.4627C47.4345 47.2932 46.5863 46.5221 46.4964 45.5068L46.3679 44.2345C46.2265 42.7823 45.4426 41.4843 44.2217 40.6875C43.5534 40.2506 43.155 39.5052 43.1679 38.6956V37.3976C43.155 36.5237 43.5277 35.6884 44.1703 35.0972L49.6835 30.2008C51.1229 28.9285 51.7012 26.9108 51.1357 25.0731C50.5574 23.1582 48.8996 21.7703 46.9205 21.5261L46.355 21.4618C45.5582 21.359 44.8257 20.9735 44.2988 20.3695C43.7205 19.7141 43.6177 18.7631 44.0546 18.0048L45.2241 16.0128C46.6635 13.5454 48.3727 11.2321 50.3133 9.1245L50.3261 9.11165L51.2771 7.7751L51.0843 7.62088C45.6739 3.36707 38.8755 1.02811 31.9743 1.02811C27.3606 1.02811 22.9012 2.03052 18.7373 3.99679L18.3518 4.17671L21.7831 6.75984C22.0659 6.97831 22.3743 7.17108 22.6827 7.351C23.9807 8.10924 25.1116 9.16305 25.9727 10.3968L28.106 13.4811C29.0827 14.8691 29.0313 16.7068 27.9904 18.0562L27.0008 19.3414C26.4739 20.0225 25.6386 20.4337 24.7775 20.4337C24.6618 20.4337 24.5462 20.4209 24.4305 20.408L23.3124 20.2667C23.1582 20.2538 23.004 20.241 22.8626 20.241C21.6032 20.241 20.4337 20.9221 19.7912 22.0016C19.29 22.8498 18.3647 23.3767 17.3751 23.3767C17.2466 23.3767 17.1181 23.3639 16.9896 23.351L14.4193 23.0297C14.2651 23.004 14.098 23.004 13.9438 23.004C12.71 23.004 11.5663 23.608 10.8851 24.6361C10.1655 25.69 10.1526 27.0779 10.8337 28.1574L12.5301 30.8434C13.0827 31.7044 14.008 32.2185 15.0361 32.2185C15.5116 32.2185 16 32.1028 16.4241 31.8715L18.1847 30.9205C18.7245 30.6249 19.3414 30.4835 19.9582 30.4835C20.6394 30.4835 21.3076 30.6635 21.8988 31.0104L25.253 33.0153C25.3044 33.041 25.3558 33.0538 25.4072 33.0538C25.4586 33.0538 25.4972 33.0538 25.5357 33.0538C27.155 33.0538 28.7357 33.902 29.751 35.3285L31.396 37.6161C31.4988 37.7703 31.6145 37.9116 31.7301 38.053L33.8763 40.5719C34.1847 40.9317 34.3133 41.4072 34.2361 41.8699C34.1719 42.2811 33.9406 42.6538 33.5936 42.9108L30.3679 45.3912C29.5839 45.9952 29.0185 46.8048 28.7357 47.743L27.6562 51.2514C27.5534 51.5984 27.3735 51.9068 27.1422 52.1896L26.0884 53.4618C25.3687 54.31 24.9189 55.351 24.8161 56.4691C24.739 57.2787 24.2377 57.9727 23.4795 58.294C23.3124 58.3582 23.1325 58.3968 22.9526 58.3968C22.2843 58.3968 21.706 57.8956 21.6032 57.2402L20.6137 51.3028C20.498 50.6474 20.2281 50.0305 19.8297 49.5036L16.1928 44.7357C15.8201 44.2474 15.5502 43.7076 15.396 43.1293L14.2008 38.7984C13.8153 37.4361 12.7357 36.3695 11.3863 35.9968L11.1293 35.9197C10.5253 35.7526 9.95984 35.4313 9.49719 35.0072L7.26104 32.8996C6.8755 32.5269 6.54137 32.1157 6.27149 31.653C5.48755 30.2908 3.99679 29.4297 2.41606 29.4297ZM22.6442 57.0859C22.657 57.1502 22.6827 57.2145 22.7213 57.2659L22.7341 57.2916L22.747 57.3044C22.8112 57.3558 22.8884 57.3944 22.9655 57.3944C23.0169 57.3944 23.0554 57.3815 23.094 57.3687C23.4924 57.2016 23.7622 56.8289 23.8008 56.4048C23.9293 55.0811 24.4434 53.8474 25.3044 52.8321L26.3582 51.5598C26.4996 51.3928 26.6024 51.1871 26.6795 50.9815L27.759 47.4731C28.106 46.3293 28.8 45.3398 29.751 44.6072L32.9767 42.1398C33.0924 42.0498 33.1952 41.9213 33.2209 41.7671C33.2594 41.5871 33.208 41.4072 33.0924 41.2787L30.9462 38.7598C30.8048 38.6056 30.6763 38.4257 30.5606 38.2586L28.9157 35.9711C28.0803 34.8145 26.8209 34.1205 25.5357 34.1205C25.4972 34.1205 25.4715 34.1205 25.4329 34.1205H25.3944C25.1502 34.1205 24.9189 34.0562 24.7133 33.9277L21.359 31.9229C20.9349 31.6659 20.4466 31.5373 19.9582 31.5373C19.5084 31.5373 19.0715 31.653 18.6731 31.8586L16.9125 32.8096C16.3341 33.1181 15.6916 33.2723 15.0361 33.2723C13.661 33.2723 12.4016 32.5783 11.6691 31.4217L9.95984 28.71C9.06024 27.2835 9.08594 25.4586 10.0369 24.0578C10.9108 22.7598 12.3759 21.9759 13.9438 21.9759C14.1494 21.9759 14.355 21.9888 14.5478 22.0145L17.1181 22.3357C17.1952 22.3486 17.2851 22.3486 17.3751 22.3486C17.992 22.3486 18.5831 22.0145 18.9044 21.4875C19.7269 20.0739 21.2305 19.2 22.8626 19.2C23.0554 19.2 23.2482 19.2129 23.441 19.2386L24.559 19.3799C24.6361 19.3928 24.7004 19.3928 24.7775 19.3928C25.3173 19.3928 25.8442 19.1357 26.1783 18.7116L27.1679 17.4265C27.9261 16.4369 27.9647 15.0875 27.2578 14.0723L25.1245 10.988C24.3534 9.88273 23.3253 8.93173 22.1558 8.23775C21.8088 8.03213 21.4747 7.81365 21.1663 7.58233L17.3365 4.70361L17.1952 4.78072C14.5863 6.20723 12.196 7.99357 10.1012 10.1012C5.23052 14.9462 2.09478 21.3719 1.25944 28.196L1.22088 28.5301L1.55502 28.4787C1.83775 28.4402 2.12048 28.4145 2.41606 28.4145C4.36948 28.4145 6.19438 29.4683 7.17108 31.1518C7.38956 31.5245 7.65944 31.8715 7.98072 32.1799L10.2169 34.2875C10.551 34.6088 10.9751 34.8402 11.412 34.9558L11.6691 35.0329C13.3783 35.5084 14.7277 36.8578 15.2032 38.5542L16.3984 42.8851C16.5269 43.3478 16.7325 43.7719 17.0281 44.1446L20.6651 48.9124C21.1663 49.5679 21.5004 50.3518 21.6418 51.1743L22.6442 57.0859ZM51.1614 9.72851C51.1486 9.74136 51.1357 9.76707 51.1229 9.77992C49.2337 11.8361 47.5502 14.1108 46.1365 16.5269L44.9799 18.5189C44.7743 18.9044 44.8257 19.3799 45.1084 19.7012C45.4683 20.1124 45.9695 20.3823 46.5092 20.4466L47.0747 20.5108C49.4651 20.8064 51.457 22.4771 52.151 24.7775C52.8193 27.0008 52.1382 29.4426 50.4032 30.9847L44.8771 35.8811C44.4402 36.2795 44.2088 36.8321 44.2217 37.4104V38.7084C44.2088 39.1454 44.4273 39.5823 44.8129 39.8265C46.3036 40.7904 47.2546 42.3582 47.4217 44.1189L47.5502 45.404C47.6016 45.8924 48.0128 46.2651 48.5141 46.2651C48.5269 46.2651 48.5398 46.2651 48.5526 46.2651H51.8169C53.2562 46.2651 54.5542 45.4169 55.1325 44.106L55.3253 43.6948C56.212 41.6643 58.204 40.302 60.4016 40.1992L61.1598 40.1606C61.2241 40.1606 61.2883 40.1478 61.3526 40.1478L61.9052 40.0964L61.9566 39.9293C62.6377 37.3462 62.9847 34.6731 62.9719 32C62.9847 27.9133 62.2008 23.9165 60.6329 20.1382C59.0651 16.3598 56.8032 12.9799 53.8988 10.1012C53.3847 9.58715 52.845 9.08594 52.3052 8.61044L52.0867 8.43052L51.1614 9.72851Z" fill="#FD862F"/>
</svg>
