<svg width="45" height="44" viewBox="0 0 45 44" fill="none" xmlns="http://www.w3.org/2000/svg">
<circle cx="22.1177" cy="22" r="22" fill="#27336A"/>
<path d="M25.9999 11.6471H18.2352C16.5191 11.6471 14.8733 12.3288 13.6598 13.5423C12.4464 14.7557 11.7646 16.4015 11.7646 18.1177L11.7646 25.8824C11.7646 27.5985 12.4464 29.2443 13.6598 30.4578C14.8733 31.6712 16.5191 32.3529 18.2352 32.3529H25.9999C27.716 32.3529 29.3619 31.6712 30.5753 30.4578C31.7888 29.2443 32.4705 27.5985 32.4705 25.8824V18.1177C32.4705 16.4015 31.7888 14.7557 30.5753 13.5423C29.3619 12.3288 27.716 11.6471 25.9999 11.6471V11.6471ZM30.5294 25.8824C30.5294 27.0836 30.0522 28.2357 29.2027 29.0851C28.3533 29.9346 27.2012 30.4118 25.9999 30.4118H18.2352C17.034 30.4118 15.8819 29.9346 15.0325 29.0851C14.183 28.2357 13.7058 27.0836 13.7058 25.8824V18.1177C13.7058 16.9164 14.183 15.7643 15.0325 14.9149C15.8819 14.0654 17.034 13.5882 18.2352 13.5882H25.9999C27.2012 13.5882 28.3533 14.0654 29.2027 14.9149C30.0522 15.7643 30.5294 16.9164 30.5294 18.1177V25.8824Z" fill="#FD862F"/>
<path d="M22.1178 16.1066C20.9522 16.1066 19.8127 16.4522 18.8436 17.0998C17.8744 17.7474 17.119 18.6678 16.673 19.7447C16.2269 20.8216 16.1102 22.0066 16.3376 23.1498C16.565 24.293 17.1263 25.3431 17.9505 26.1673C18.7747 26.9915 19.8248 27.5528 20.968 27.7802C22.1112 28.0076 23.2962 27.8909 24.3731 27.4448C25.45 26.9988 26.3704 26.2434 27.018 25.2742C27.6655 24.305 28.0112 23.1656 28.0112 22C28.0112 20.437 27.3903 18.938 26.2851 17.8327C25.1798 16.7275 23.6808 16.1066 22.1178 16.1066ZM22.1178 25.6831C21.3893 25.6831 20.6773 25.4671 20.0716 25.0624C19.4659 24.6577 18.9938 24.0824 18.7151 23.4094C18.4363 22.7365 18.3634 21.9959 18.5055 21.2815C18.6476 20.567 18.9984 19.9108 19.5135 19.3957C20.0286 18.8806 20.6848 18.5298 21.3993 18.3877C22.1137 18.2456 22.8542 18.3185 23.5272 18.5973C24.2002 18.8761 24.7754 19.3481 25.1801 19.9538C25.5848 20.5595 25.8008 21.2716 25.8008 22C25.7995 22.9764 25.411 23.9124 24.7206 24.6028C24.0302 25.2932 23.0942 25.6817 22.1178 25.6831V25.6831Z" fill="#FD862F"/>
<path d="M27.6278 17.2764C28.0617 17.2764 28.4133 16.9247 28.4133 16.4909C28.4133 16.0571 28.0617 15.7054 27.6278 15.7054C27.194 15.7054 26.8423 16.0571 26.8423 16.4909C26.8423 16.9247 27.194 17.2764 27.6278 17.2764Z" fill="#FD862F"/>
</svg>
