<svg width="45" height="44" viewBox="0 0 45 44" fill="none" xmlns="http://www.w3.org/2000/svg">
<circle cx="22.2354" cy="22" r="22" fill="#27336A"/>
<path d="M23.7882 17.8222C26.1513 16.3986 27.426 18.4032 26.2134 20.6692C25.0008 22.9352 23.884 24.4222 23.3081 24.4222C22.7322 24.4222 22.2922 22.899 21.6257 20.2551C20.945 17.5168 20.945 12.5797 18.0954 13.1375C15.4101 13.6706 11.8823 17.8804 11.8823 17.8804L12.7209 18.9843C12.7209 18.9843 14.4589 17.6125 15.0374 18.2958C15.6159 18.9791 17.843 27.2589 18.5768 28.7846C19.2239 30.1241 20.9955 31.8905 22.9393 30.6314C24.883 29.3722 31.3756 23.8334 32.5351 17.2916C33.6947 10.7498 24.7316 12.1293 23.7882 17.8222Z" fill="#FD862F"/>
</svg>
