<svg width="176" height="43" viewBox="0 0 176 43" fill="none" xmlns="http://www.w3.org/2000/svg">
<path d="M8.3377 43H17.445L22.5118 20.3823C23.2173 17.0291 23.7945 13.7416 24.3717 10.4541H24.6283C25.2055 13.7416 25.7827 17.0291 26.4882 20.3823L31.6833 43H40.9188L49 0H41.8168L38.2251 21.6972C37.5196 26.2339 36.8783 30.8364 36.1728 35.4388H35.9162C35.0183 30.8364 34.0563 26.1682 33.1584 21.6972L27.9634 0H21.5497L16.3547 21.6972C15.4568 26.2339 14.4948 30.9021 13.661 35.4388H13.4045C12.699 30.9021 11.9935 26.2997 11.288 21.6972L7.69634 0H0L8.3377 43Z" fill="white"/>
<path d="M84.32 16.0001L81.48 6.40012H82.44L84.16 12.6201C84.28 13.0601 84.3933 13.4935 84.5 13.9201C84.6067 14.3335 84.7133 14.7535 84.82 15.1801H84.9C85.0067 14.7535 85.12 14.3335 85.24 13.9201C85.36 13.4935 85.48 13.0601 85.6 12.6201L87.34 6.40012H88.4L90.14 12.6201C90.26 13.0601 90.38 13.4935 90.5 13.9201C90.62 14.3335 90.74 14.7535 90.86 15.1801H90.94C91.0467 14.7535 91.16 14.3335 91.28 13.9201C91.4 13.4935 91.5133 13.0601 91.62 12.6201L93.32 6.40012H94.22L91.46 16.0001H90.3L88.62 10.0401C88.4733 9.57345 88.3467 9.12012 88.24 8.68012C88.1467 8.22678 88.0267 7.76678 87.88 7.30012H87.8C87.6933 7.76678 87.5733 8.23345 87.44 8.70012C87.32 9.15345 87.1867 9.61345 87.04 10.0801L85.38 16.0001H84.32Z" fill="#FD862F"/>
<path d="M100.031 16.2401C99.4581 16.2401 98.9114 16.1268 98.3914 15.9001C97.8714 15.6735 97.4114 15.3468 97.0114 14.9201C96.6248 14.4935 96.3114 13.9735 96.0714 13.3601C95.8448 12.7335 95.7314 12.0201 95.7314 11.2201C95.7314 10.4201 95.8448 9.70679 96.0714 9.08012C96.3114 8.44012 96.6248 7.90678 97.0114 7.48012C97.4114 7.05345 97.8714 6.72678 98.3914 6.50012C98.9114 6.27345 99.4581 6.16012 100.031 6.16012C100.605 6.16012 101.151 6.27345 101.671 6.50012C102.205 6.72678 102.665 7.05345 103.051 7.48012C103.451 7.90678 103.765 8.44012 103.991 9.08012C104.231 9.70679 104.351 10.4201 104.351 11.2201C104.351 12.0201 104.231 12.7335 103.991 13.3601C103.765 13.9735 103.451 14.4935 103.051 14.9201C102.665 15.3468 102.205 15.6735 101.671 15.9001C101.151 16.1268 100.605 16.2401 100.031 16.2401ZM100.031 15.4601C100.511 15.4601 100.958 15.3601 101.371 15.1601C101.798 14.9468 102.158 14.6535 102.451 14.2801C102.758 13.9068 102.998 13.4601 103.171 12.9401C103.345 12.4201 103.431 11.8468 103.431 11.2201C103.431 10.5801 103.345 10.0001 103.171 9.48012C102.998 8.96012 102.758 8.51345 102.451 8.14012C102.158 7.75345 101.798 7.46012 101.371 7.26012C100.958 7.04679 100.511 6.94012 100.031 6.94012C99.5514 6.94012 99.1048 7.04679 98.6914 7.26012C98.2781 7.46012 97.9181 7.75345 97.6114 8.14012C97.3181 8.51345 97.0848 8.96012 96.9114 9.48012C96.7381 10.0001 96.6514 10.5801 96.6514 11.2201C96.6514 11.8468 96.7381 12.4201 96.9114 12.9401C97.0848 13.4601 97.3181 13.9068 97.6114 14.2801C97.9181 14.6535 98.2781 14.9468 98.6914 15.1601C99.1048 15.3601 99.5514 15.4601 100.031 15.4601Z" fill="#FD862F"/>
<path d="M107.235 16.0001V6.40012H107.995L108.075 8.18012H108.135C108.455 7.58012 108.841 7.09345 109.295 6.72012C109.761 6.34678 110.281 6.16012 110.855 6.16012C111.041 6.16012 111.208 6.17345 111.355 6.20012C111.501 6.22678 111.655 6.28012 111.815 6.36012L111.615 7.16012C111.455 7.09345 111.315 7.05345 111.195 7.04012C111.075 7.01345 110.921 7.00012 110.735 7.00012C110.308 7.00012 109.855 7.18678 109.375 7.56012C108.908 7.92012 108.488 8.55345 108.115 9.46012V16.0001H107.235Z" fill="#FD862F"/>
<path d="M114.762 16.2401C113.976 16.2401 113.582 15.7335 113.582 14.7201V1.62012H114.462V14.8401C114.462 15.0535 114.502 15.2135 114.582 15.3201C114.662 15.4135 114.762 15.4601 114.882 15.4601C114.922 15.4601 114.962 15.4601 115.002 15.4601C115.056 15.4601 115.136 15.4468 115.242 15.4201L115.402 16.1401C115.309 16.1668 115.216 16.1868 115.122 16.2001C115.029 16.2268 114.909 16.2401 114.762 16.2401Z" fill="#FD862F"/>
<path d="M121.508 16.2401C120.295 16.2401 119.328 15.8135 118.608 14.9601C117.888 14.0935 117.528 12.8468 117.528 11.2201C117.528 10.4468 117.642 9.74678 117.868 9.12012C118.095 8.49345 118.402 7.96012 118.788 7.52012C119.188 7.08012 119.642 6.74678 120.148 6.52012C120.668 6.28012 121.215 6.16012 121.788 6.16012C122.375 6.16012 122.882 6.26678 123.308 6.48012C123.748 6.68012 124.208 6.96678 124.688 7.34012L124.648 5.58012V1.62012H125.528V16.0001H124.768L124.688 14.7601H124.628C124.242 15.1468 123.782 15.4935 123.248 15.8001C122.728 16.0935 122.148 16.2401 121.508 16.2401ZM121.628 15.4601C122.162 15.4601 122.668 15.3268 123.148 15.0601C123.642 14.7801 124.142 14.3868 124.648 13.8801V8.18012C124.142 7.72678 123.662 7.40678 123.208 7.22012C122.768 7.03345 122.315 6.94012 121.848 6.94012C121.368 6.94012 120.922 7.05345 120.508 7.28012C120.095 7.49345 119.735 7.79345 119.428 8.18012C119.135 8.55345 118.902 9.00678 118.728 9.54012C118.555 10.0601 118.468 10.6201 118.468 11.2201C118.468 11.8601 118.535 12.4401 118.668 12.9601C118.815 13.4801 119.022 13.9268 119.288 14.3001C119.555 14.6601 119.882 14.9468 120.268 15.1601C120.668 15.3601 121.122 15.4601 121.628 15.4601Z" fill="#FD862F"/>
<path d="M135.831 16.2401C135.364 16.2401 134.978 16.1668 134.671 16.0201C134.364 15.8868 134.118 15.6935 133.931 15.4401C133.744 15.1868 133.611 14.8801 133.531 14.5201C133.464 14.1601 133.431 13.7668 133.431 13.3401V7.16012H131.931V6.48012L133.451 6.40012L133.571 3.62012H134.331V6.40012H137.111V7.16012H134.331V13.4201C134.331 13.7268 134.351 14.0068 134.391 14.2601C134.444 14.5001 134.531 14.7135 134.651 14.9001C134.771 15.0735 134.931 15.2135 135.131 15.3201C135.344 15.4135 135.618 15.4601 135.951 15.4601C136.138 15.4601 136.338 15.4335 136.551 15.3801C136.778 15.3135 136.978 15.2401 137.151 15.1601L137.391 15.8801C137.111 15.9868 136.831 16.0735 136.551 16.1401C136.271 16.2068 136.031 16.2401 135.831 16.2401Z" fill="#FD862F"/>
<path d="M139.442 16.0001V6.40012H140.202L140.282 8.18012H140.342C140.662 7.58012 141.048 7.09345 141.502 6.72012C141.968 6.34678 142.488 6.16012 143.062 6.16012C143.248 6.16012 143.415 6.17345 143.562 6.20012C143.708 6.22678 143.862 6.28012 144.022 6.36012L143.822 7.16012C143.662 7.09345 143.522 7.05345 143.402 7.04012C143.282 7.01345 143.128 7.00012 142.942 7.00012C142.515 7.00012 142.062 7.18678 141.582 7.56012C141.115 7.92012 140.695 8.55345 140.322 9.46012V16.0001H139.442Z" fill="#FD862F"/>
<path d="M147.46 16.2401C147.073 16.2401 146.713 16.1868 146.38 16.0801C146.046 15.9735 145.753 15.8135 145.5 15.6001C145.246 15.3868 145.046 15.1135 144.9 14.7801C144.753 14.4468 144.68 14.0535 144.68 13.6001C144.68 12.5335 145.173 11.7268 146.16 11.1801C147.16 10.6201 148.733 10.2201 150.88 9.98012C150.88 9.62012 150.853 9.26012 150.8 8.90012C150.746 8.52678 150.633 8.20012 150.46 7.92012C150.286 7.62678 150.053 7.39345 149.76 7.22012C149.466 7.03345 149.08 6.94012 148.6 6.94012C147.96 6.94012 147.373 7.06678 146.84 7.32012C146.306 7.57345 145.873 7.82012 145.54 8.06012L145.14 7.40012C145.313 7.28012 145.52 7.14678 145.76 7.00012C146.013 6.85345 146.293 6.72012 146.6 6.60012C146.906 6.48012 147.24 6.38012 147.6 6.30012C147.96 6.20678 148.333 6.16012 148.72 6.16012C149.28 6.16012 149.753 6.26012 150.14 6.46012C150.526 6.64678 150.84 6.90678 151.08 7.24012C151.32 7.57345 151.493 7.96678 151.6 8.42012C151.706 8.86012 151.76 9.34012 151.76 9.86012V16.0001H151L150.92 14.7601H150.86C150.366 15.1468 149.833 15.4935 149.26 15.8001C148.7 16.0935 148.1 16.2401 147.46 16.2401ZM147.62 15.4801C148.18 15.4801 148.713 15.3468 149.22 15.0801C149.726 14.8135 150.28 14.4268 150.88 13.9201V10.6601C149.893 10.7801 149.06 10.9268 148.38 11.1001C147.7 11.2735 147.153 11.4801 146.74 11.7201C146.326 11.9601 146.026 12.2335 145.84 12.5401C145.666 12.8468 145.58 13.1868 145.58 13.5601C145.58 13.9068 145.633 14.2001 145.74 14.4401C145.846 14.6801 145.993 14.8801 146.18 15.0401C146.366 15.1868 146.58 15.3001 146.82 15.3801C147.073 15.4468 147.34 15.4801 147.62 15.4801Z" fill="#FD862F"/>
<path d="M157.184 16.0001L153.584 6.40012H154.544L156.704 12.4201C156.85 12.8868 157.01 13.3535 157.184 13.8201C157.357 14.2868 157.517 14.7401 157.664 15.1801H157.744C157.904 14.7401 158.064 14.2868 158.224 13.8201C158.397 13.3535 158.564 12.8868 158.724 12.4201L160.884 6.40012H161.784L158.224 16.0001H157.184Z" fill="#FD862F"/>
<path d="M167.496 16.2401C166.882 16.2401 166.302 16.1268 165.756 15.9001C165.222 15.6735 164.756 15.3468 164.356 14.9201C163.956 14.4801 163.636 13.9535 163.396 13.3401C163.169 12.7135 163.056 12.0068 163.056 11.2201C163.056 10.4335 163.169 9.72678 163.396 9.10012C163.636 8.47345 163.949 7.94678 164.336 7.52012C164.736 7.08012 165.182 6.74678 165.676 6.52012C166.182 6.28012 166.702 6.16012 167.236 6.16012C168.382 6.16012 169.282 6.54678 169.936 7.32012C170.589 8.09345 170.916 9.18678 170.916 10.6001C170.916 10.7201 170.916 10.8401 170.916 10.9601C170.916 11.0801 170.902 11.2001 170.876 11.3201H163.956C163.969 11.9201 164.062 12.4801 164.236 13.0001C164.409 13.5068 164.649 13.9468 164.956 14.3201C165.276 14.6801 165.656 14.9668 166.096 15.1801C166.536 15.3801 167.029 15.4801 167.576 15.4801C168.096 15.4801 168.562 15.4068 168.976 15.2601C169.402 15.1001 169.796 14.8868 170.156 14.6201L170.516 15.3001C170.129 15.5268 169.702 15.7401 169.236 15.9401C168.782 16.1401 168.202 16.2401 167.496 16.2401ZM163.956 10.6001H170.076C170.076 9.36012 169.822 8.44012 169.316 7.84012C168.809 7.22678 168.122 6.92012 167.256 6.92012C166.842 6.92012 166.449 7.00678 166.076 7.18012C165.702 7.34012 165.362 7.58012 165.056 7.90012C164.762 8.22012 164.516 8.60678 164.316 9.06012C164.129 9.51345 164.009 10.0268 163.956 10.6001Z" fill="#FD862F"/>
<path d="M174.704 16.2401C173.917 16.2401 173.524 15.7335 173.524 14.7201V1.62012H174.404V14.8401C174.404 15.0535 174.444 15.2135 174.524 15.3201C174.604 15.4135 174.704 15.4601 174.824 15.4601C174.864 15.4601 174.904 15.4601 174.944 15.4601C174.997 15.4601 175.077 15.4468 175.184 15.4201L175.344 16.1401C175.25 16.1668 175.157 16.1868 175.064 16.2001C174.97 16.2268 174.85 16.2401 174.704 16.2401Z" fill="#FD862F"/>
<path d="M84.94 36.2401C84.5533 36.2401 84.1933 36.1868 83.86 36.0801C83.5267 35.9735 83.2333 35.8134 82.98 35.6001C82.7267 35.3868 82.5267 35.1134 82.38 34.7801C82.2333 34.4468 82.16 34.0535 82.16 33.6001C82.16 32.5335 82.6533 31.7268 83.64 31.1801C84.64 30.6201 86.2133 30.2201 88.36 29.9801C88.36 29.6201 88.3333 29.2601 88.28 28.9001C88.2267 28.5268 88.1133 28.2001 87.94 27.9201C87.7667 27.6268 87.5333 27.3934 87.24 27.2201C86.9467 27.0335 86.56 26.9401 86.08 26.9401C85.44 26.9401 84.8533 27.0668 84.32 27.3201C83.7867 27.5735 83.3533 27.8201 83.02 28.0601L82.62 27.4001C82.7933 27.2801 83 27.1468 83.24 27.0001C83.4933 26.8535 83.7733 26.7201 84.08 26.6001C84.3867 26.4801 84.72 26.3801 85.08 26.3001C85.44 26.2068 85.8133 26.1601 86.2 26.1601C86.76 26.1601 87.2333 26.2601 87.62 26.4601C88.0067 26.6468 88.32 26.9068 88.56 27.2401C88.8 27.5735 88.9733 27.9668 89.08 28.4201C89.1867 28.8601 89.24 29.3401 89.24 29.8601V36.0001H88.48L88.4 34.7601H88.34C87.8467 35.1468 87.3133 35.4935 86.74 35.8001C86.18 36.0935 85.58 36.2401 84.94 36.2401ZM85.1 35.4801C85.66 35.4801 86.1933 35.3468 86.7 35.0801C87.2067 34.8135 87.76 34.4268 88.36 33.9201V30.6601C87.3733 30.7801 86.54 30.9268 85.86 31.1001C85.18 31.2735 84.6333 31.4801 84.22 31.7201C83.8067 31.9601 83.5067 32.2335 83.32 32.5401C83.1467 32.8468 83.06 33.1868 83.06 33.5601C83.06 33.9068 83.1133 34.2001 83.22 34.4401C83.3267 34.6801 83.4733 34.8801 83.66 35.0401C83.8467 35.1868 84.06 35.3001 84.3 35.3801C84.5533 35.4468 84.82 35.4801 85.1 35.4801Z" fill="#FD862F"/>
<path d="M95.8442 36.2401C94.6309 36.2401 93.6642 35.8134 92.9442 34.9601C92.2242 34.0935 91.8642 32.8468 91.8642 31.2201C91.8642 30.4468 91.9776 29.7468 92.2042 29.1201C92.4309 28.4935 92.7376 27.9601 93.1242 27.5201C93.5242 27.0801 93.9776 26.7468 94.4842 26.5201C95.0042 26.2801 95.5509 26.1601 96.1242 26.1601C96.7109 26.1601 97.2176 26.2668 97.6442 26.4801C98.0842 26.6801 98.5442 26.9668 99.0242 27.3401L98.9842 25.5801V21.6201H99.8642V36.0001H99.1042L99.0242 34.7601H98.9642C98.5776 35.1468 98.1176 35.4935 97.5842 35.8001C97.0642 36.0935 96.4842 36.2401 95.8442 36.2401ZM95.9642 35.4601C96.4976 35.4601 97.0042 35.3268 97.4842 35.0601C97.9776 34.7801 98.4776 34.3868 98.9842 33.8801V28.1801C98.4776 27.7268 97.9976 27.4068 97.5442 27.2201C97.1042 27.0335 96.6509 26.9401 96.1842 26.9401C95.7042 26.9401 95.2576 27.0534 94.8442 27.2801C94.4309 27.4935 94.0709 27.7935 93.7642 28.1801C93.4709 28.5535 93.2376 29.0068 93.0642 29.5401C92.8909 30.0601 92.8042 30.6201 92.8042 31.2201C92.8042 31.8601 92.8709 32.4401 93.0042 32.9601C93.1509 33.4801 93.3576 33.9268 93.6242 34.3001C93.8909 34.6601 94.2176 34.9468 94.6042 35.1601C95.0042 35.3601 95.4576 35.4601 95.9642 35.4601Z" fill="#FD862F"/>
<path d="M105.543 36.0001L101.943 26.4001H102.903L105.063 32.4201C105.21 32.8868 105.37 33.3535 105.543 33.8201C105.716 34.2868 105.876 34.7401 106.023 35.1801H106.103C106.263 34.7401 106.423 34.2868 106.583 33.8201C106.756 33.3535 106.923 32.8868 107.083 32.4201L109.243 26.4001H110.143L106.583 36.0001H105.543Z" fill="#FD862F"/>
<path d="M115.855 36.2401C115.242 36.2401 114.662 36.1268 114.115 35.9001C113.582 35.6735 113.115 35.3468 112.715 34.9201C112.315 34.4801 111.995 33.9535 111.755 33.3401C111.528 32.7135 111.415 32.0068 111.415 31.2201C111.415 30.4335 111.528 29.7268 111.755 29.1001C111.995 28.4734 112.308 27.9468 112.695 27.5201C113.095 27.0801 113.542 26.7468 114.035 26.5201C114.542 26.2801 115.062 26.1601 115.595 26.1601C116.742 26.1601 117.642 26.5468 118.295 27.3201C118.948 28.0935 119.275 29.1868 119.275 30.6001C119.275 30.7201 119.275 30.8401 119.275 30.9601C119.275 31.0801 119.262 31.2001 119.235 31.3201H112.315C112.328 31.9201 112.422 32.4801 112.595 33.0001C112.768 33.5068 113.008 33.9468 113.315 34.3201C113.635 34.6801 114.015 34.9668 114.455 35.1801C114.895 35.3801 115.388 35.4801 115.935 35.4801C116.455 35.4801 116.922 35.4068 117.335 35.2601C117.762 35.1001 118.155 34.8868 118.515 34.6201L118.875 35.3001C118.488 35.5268 118.062 35.7401 117.595 35.9401C117.142 36.1401 116.562 36.2401 115.855 36.2401ZM112.315 30.6001H118.435C118.435 29.3601 118.182 28.4401 117.675 27.8401C117.168 27.2268 116.482 26.9201 115.615 26.9201C115.202 26.9201 114.808 27.0068 114.435 27.1801C114.062 27.3401 113.722 27.5801 113.415 27.9001C113.122 28.2201 112.875 28.6068 112.675 29.0601C112.488 29.5135 112.368 30.0268 112.315 30.6001Z" fill="#FD862F"/>
<path d="M121.883 36.0001V26.4001H122.643L122.723 27.8801H122.783C123.276 27.3868 123.783 26.9801 124.303 26.6601C124.823 26.3268 125.416 26.1601 126.083 26.1601C127.083 26.1601 127.816 26.4601 128.283 27.0601C128.75 27.6601 128.983 28.5868 128.983 29.8401V36.0001H128.103V29.9601C128.103 28.9335 127.93 28.1801 127.583 27.7001C127.25 27.2068 126.69 26.9601 125.903 26.9601C125.33 26.9601 124.81 27.1135 124.343 27.4201C123.876 27.7135 123.35 28.1601 122.763 28.7601V36.0001H121.883Z" fill="#FD862F"/>
<path d="M135.148 36.2401C134.681 36.2401 134.294 36.1668 133.988 36.0201C133.681 35.8868 133.434 35.6935 133.248 35.4401C133.061 35.1868 132.928 34.8801 132.848 34.5201C132.781 34.1601 132.748 33.7668 132.748 33.3401V27.1601H131.248V26.4801L132.768 26.4001L132.888 23.6201H133.648V26.4001H136.428V27.1601H133.648V33.4201C133.648 33.7268 133.668 34.0068 133.708 34.2601C133.761 34.5001 133.848 34.7135 133.968 34.9001C134.088 35.0735 134.248 35.2135 134.448 35.3201C134.661 35.4135 134.934 35.4601 135.268 35.4601C135.454 35.4601 135.654 35.4335 135.868 35.3801C136.094 35.3135 136.294 35.2401 136.468 35.1601L136.708 35.8801C136.428 35.9868 136.148 36.0735 135.868 36.1401C135.588 36.2068 135.348 36.2401 135.148 36.2401Z" fill="#FD862F"/>
<path d="M141.518 36.2401C140.518 36.2401 139.785 35.9401 139.318 35.3401C138.851 34.7401 138.618 33.8135 138.618 32.5601V26.4001H139.498V32.4401C139.498 33.4668 139.665 34.2268 139.998 34.7201C140.345 35.2001 140.905 35.4401 141.678 35.4401C142.251 35.4401 142.771 35.2868 143.238 34.9801C143.705 34.6601 144.218 34.1601 144.778 33.4801V26.4001H145.658V36.0001H144.918L144.818 34.4001H144.778C144.311 34.9601 143.818 35.4068 143.298 35.7401C142.778 36.0735 142.185 36.2401 141.518 36.2401Z" fill="#FD862F"/>
<path d="M149.344 36.0001V26.4001H150.104L150.184 28.1801H150.244C150.564 27.5801 150.951 27.0935 151.404 26.7201C151.871 26.3468 152.391 26.1601 152.964 26.1601C153.151 26.1601 153.317 26.1735 153.464 26.2001C153.611 26.2268 153.764 26.2801 153.924 26.3601L153.724 27.1601C153.564 27.0935 153.424 27.0534 153.304 27.0401C153.184 27.0135 153.031 27.0001 152.844 27.0001C152.417 27.0001 151.964 27.1868 151.484 27.5601C151.017 27.9201 150.597 28.5535 150.224 29.4601V36.0001H149.344Z" fill="#FD862F"/>
<path d="M159.136 36.2401C158.523 36.2401 157.943 36.1268 157.396 35.9001C156.863 35.6735 156.396 35.3468 155.996 34.9201C155.596 34.4801 155.276 33.9535 155.036 33.3401C154.81 32.7135 154.696 32.0068 154.696 31.2201C154.696 30.4335 154.81 29.7268 155.036 29.1001C155.276 28.4734 155.59 27.9468 155.976 27.5201C156.376 27.0801 156.823 26.7468 157.316 26.5201C157.823 26.2801 158.343 26.1601 158.876 26.1601C160.023 26.1601 160.923 26.5468 161.576 27.3201C162.23 28.0935 162.556 29.1868 162.556 30.6001C162.556 30.7201 162.556 30.8401 162.556 30.9601C162.556 31.0801 162.543 31.2001 162.516 31.3201H155.596C155.61 31.9201 155.703 32.4801 155.876 33.0001C156.05 33.5068 156.29 33.9468 156.596 34.3201C156.916 34.6801 157.296 34.9668 157.736 35.1801C158.176 35.3801 158.67 35.4801 159.216 35.4801C159.736 35.4801 160.203 35.4068 160.616 35.2601C161.043 35.1001 161.436 34.8868 161.796 34.6201L162.156 35.3001C161.77 35.5268 161.343 35.7401 160.876 35.9401C160.423 36.1401 159.843 36.2401 159.136 36.2401ZM155.596 30.6001H161.716C161.716 29.3601 161.463 28.4401 160.956 27.8401C160.45 27.2268 159.763 26.9201 158.896 26.9201C158.483 26.9201 158.09 27.0068 157.716 27.1801C157.343 27.3401 157.003 27.5801 156.696 27.9001C156.403 28.2201 156.156 28.6068 155.956 29.0601C155.77 29.5135 155.65 30.0268 155.596 30.6001Z" fill="#FD862F"/>
<path fill-rule="evenodd" clip-rule="evenodd" d="M67 43V0L68 0V43H67Z" fill="#FD862F"/>
</svg>
